<svg xmlns="http://www.w3.org/2000/svg" width="26.422" height="20.785" viewBox="0 0 26.422 20.785">
  <path id="bubble.left.and.bubble.right" d="M7.237,23.835a2.363,2.363,0,0,0,1.58-.754L11.7,20.514a3.9,3.9,0,0,0,2.908,1.059h3.069l2.989,2.567a2.431,2.431,0,0,0,1.5.781,1.135,1.135,0,0,0,1.14-1.292V21.573h.413a3.481,3.481,0,0,0,3.769-3.706V12.383a3.551,3.551,0,0,0-3.841-3.778H22.082V8.022a3.61,3.61,0,0,0-3.958-3.886H5.02A3.644,3.644,0,0,0,1.062,8.022v8.4a3.587,3.587,0,0,0,3.886,3.832H6.08v2.3A1.131,1.131,0,0,0,7.237,23.835Zm.449-4.46a.74.74,0,0,0-.781-.817H5.236A2.169,2.169,0,0,1,2.849,16.17V8.219a2.18,2.18,0,0,1,2.387-2.4H17.9a2.176,2.176,0,0,1,2.387,2.4v.386H14.606a3.512,3.512,0,0,0-3.841,3.778v5.483a4.754,4.754,0,0,0,.108,1.041l-3.186,2.98Zm14.019,3.6L18.9,20.424a1.681,1.681,0,0,0-1.257-.521H14.794a2.054,2.054,0,0,1-2.262-2.27v-5.08a2.063,2.063,0,0,1,2.262-2.271h8.652a2.065,2.065,0,0,1,2.271,2.271v5.08a2.065,2.065,0,0,1-2.271,2.27h-.969a.731.731,0,0,0-.772.808Z" transform="translate(-1.063 -4.136)" fill="#1c1c1e"/>
</svg>
