<svg xmlns="http://www.w3.org/2000/svg" width="26.42" height="21.088" viewBox="0 0 26.42 21.088">
  <path id="bubble.left.and.bubble.right.fill_1_" data-name="bubble.left.and.bubble.right.fill (1)" d="M7.028,24.01a1.649,1.649,0,0,0,1.127-.6l2.572-2.365a2.934,2.934,0,0,1-.945-2.511v-6.4A4.244,4.244,0,0,1,14.4,7.544h6.544l-.009-.282a3.188,3.188,0,0,0-3.526-3.029H4.774A3.243,3.243,0,0,0,1.221,7.726v9.116a3.26,3.26,0,0,0,3.49,3.539H6.165v2.638C6.165,23.619,6.483,24.01,7.028,24.01Zm15.314,1.31c.554,0,.872-.391.872-.992V21.69h.936a3.26,3.26,0,0,0,3.49-3.539V12.366a3.243,3.243,0,0,0-3.554-3.493H14.672a3.212,3.212,0,0,0-3.554,3.53v5.75a3.248,3.248,0,0,0,3.554,3.539h3.2l3.354,3.029C21.679,25.138,21.96,25.32,22.342,25.32Z" transform="translate(-1.221 -4.232)" fill="#197572"/>
</svg>
