<svg xmlns="http://www.w3.org/2000/svg" width="22.389" height="16.785" viewBox="0 0 22.389 16.785">
  <path id="creditcard" d="M6.706,22.837H22.871c2.053,0,3.112-1.095,3.112-3.167V9.209c0-2.073-1.059-3.158-3.112-3.158H6.706c-2.043,0-3.112,1.085-3.112,3.158V19.67C3.594,21.752,4.663,22.837,6.706,22.837ZM5.476,9.384A1.227,1.227,0,0,1,6.829,7.989H22.748A1.227,1.227,0,0,1,24.1,9.384v.7H5.476ZM6.829,20.9a1.227,1.227,0,0,1-1.353-1.395V12.357H24.1v7.148A1.227,1.227,0,0,1,22.748,20.9Zm1.286-1.753h2.317a.884.884,0,0,0,.936-.92v-1.8a.884.884,0,0,0-.936-.92H8.115a.882.882,0,0,0-.927.92v1.8A.882.882,0,0,0,8.115,19.147Z" transform="translate(-3.594 -6.052)" fill="#1c1c1e"/>
</svg>
