<svg xmlns="http://www.w3.org/2000/svg" width="22.389" height="16.785" viewBox="0 0 22.389 16.785">
  <path id="creditcard.fill" d="M22.871,6.052H6.706c-2.043,0-3.112,1.085-3.112,3.158v.872H25.983V9.209C25.983,7.137,24.923,6.052,22.871,6.052ZM7.548,19.738a.887.887,0,0,1-.936-.93V17.016a.892.892,0,0,1,.936-.93H9.865a.889.889,0,0,1,.927.93v1.792a.884.884,0,0,1-.927.93Zm-.842,3.1H22.871c2.053,0,3.112-1.095,3.112-3.167V12.357H3.594V19.67C3.594,21.752,4.663,22.837,6.706,22.837Z" transform="translate(-3.594 -6.052)" fill="#197572"/>
</svg>
