<svg xmlns="http://www.w3.org/2000/svg" width="16.479" height="20.786" viewBox="0 0 16.479 20.786">
  <path id="doc.fill_1_" data-name="doc.fill (1)" d="M9.577,24.921H19.8c2.062,0,3.127-1.084,3.127-3.156V13.181H15.735a1.556,1.556,0,0,1-1.774-1.774V4.136H9.577C7.524,4.136,6.45,5.22,6.45,7.3V21.766A2.8,2.8,0,0,0,9.577,24.921Zm6.34-13.141h6.916a2.619,2.619,0,0,0-.873-1.362L16.713,5.1a2.554,2.554,0,0,0-1.352-.873v6.993A.5.5,0,0,0,15.917,11.78Z" transform="translate(-6.45 -4.136)" fill="#197572"/>
</svg>
