<svg xmlns="http://www.w3.org/2000/svg" width="16.343" height="17.883" viewBox="0 0 16.343 17.883">
  <path id="rectangle.portrait.and.arrow.right_7_" data-name="rectangle.portrait.and.arrow.right (7)" d="M6.038,20.487h8.039a2.195,2.195,0,0,0,2.453-2.476v-3.4h-1.48v3.306a.978.978,0,0,1-1.1,1.087H6.159a.972.972,0,0,1-1.095-1.087V6.711A.972.972,0,0,1,6.159,5.624h7.79a.978.978,0,0,1,1.1,1.087v3.314h1.48V6.62a2.2,2.2,0,0,0-2.453-2.476H6.038A2.2,2.2,0,0,0,3.585,6.62V18.011A2.195,2.195,0,0,0,6.038,20.487ZM10.9,13.007h7.609l1.117-.053-.551.468L17.95,14.479a.631.631,0,0,0-.211.468.611.611,0,0,0,.6.627.6.6,0,0,0,.445-.2l2.446-2.529a.714.714,0,0,0,0-1.057L18.788,9.247a.6.6,0,0,0-1.049.423.643.643,0,0,0,.211.468L19.075,11.2l.559.468-1.125-.06H10.9a.7.7,0,0,0,0,1.4Z" transform="translate(-4.145 21.468) rotate(-90)" fill="#197572"/>
</svg>
