<svg xmlns="http://www.w3.org/2000/svg" width="20.821" height="19.028" viewBox="0 0 20.821 19.028">
  <path id="rectangle.portrait.and.arrow.right_7_" data-name="rectangle.portrait.and.arrow.right (7)" d="M21.55,23.173h-9.36A2.555,2.555,0,0,1,9.333,20.29V16.335h1.723v3.85a1.138,1.138,0,0,0,1.283,1.266h9.07a1.132,1.132,0,0,0,1.274-1.266V7.133a1.132,1.132,0,0,0-1.274-1.266h-9.07a1.138,1.138,0,0,0-1.283,1.266v3.858H9.333V7.027a2.559,2.559,0,0,1,2.856-2.883h9.36a2.559,2.559,0,0,1,2.856,2.883V20.29A2.555,2.555,0,0,1,21.55,23.173Zm-5.66-8.71H7.03l-1.3-.062.642.545,1.31,1.23a.734.734,0,0,1,.246.545.711.711,0,0,1-.7.729.7.7,0,0,1-.519-.237L3.857,14.269a.831.831,0,0,1,0-1.23l2.848-2.953a.7.7,0,0,1,1.222.492.749.749,0,0,1-.246.545l-1.31,1.239-.65.545,1.31-.07H15.89a.813.813,0,0,1,0,1.626Z" transform="translate(-3.585 -4.145)" fill="#ff1b1b"/>
</svg>
