<svg xmlns="http://www.w3.org/2000/svg" width="21.314" height="21.304" viewBox="0 0 21.314 21.304">
  <path id="person.crop.circle.fill" d="M15.555,25.87A10.652,10.652,0,1,0,4.9,15.218,10.721,10.721,0,0,0,15.555,25.87Zm-.01-8.973a3.715,3.715,0,0,1-3.585-3.935,3.71,3.71,0,0,1,3.585-3.853,3.724,3.724,0,0,1,3.585,3.853A3.7,3.7,0,0,1,15.545,16.9Zm0,7.211A8.865,8.865,0,0,1,9.23,21.482c1.185-1.772,3.533-2.8,6.315-2.8,2.751,0,5.12,1.01,6.315,2.8A8.864,8.864,0,0,1,15.545,24.109Z" transform="translate(-4.903 -4.566)" fill="#197572"/>
</svg>
