<svg xmlns="http://www.w3.org/2000/svg" width="17.098" height="14.691" viewBox="0 0 17.098 14.691">
  <path id="arrowshape.turn.up.right" d="M14.117,20.163a1.646,1.646,0,0,0,1.191-.56l6.249-5.862a1.213,1.213,0,0,0,0-1.846L15.309,6.071a1.648,1.648,0,0,0-1.176-.6,1.068,1.068,0,0,0-1.081,1.1V9.385h-.2c-5.444,0-7.969,3.5-7.969,9.224,0,1,.426,1.523.978,1.523a1.154,1.154,0,0,0,1.112-.71c1.239-2.3,3-3.148,5.878-3.148h.2V19.1A1.032,1.032,0,0,0,14.117,20.163Zm.5-2.036A.114.114,0,0,1,14.5,18V15.09c0-.181-.079-.26-.26-.26h-1.01c-3.614,0-5.918,1.144-6.864,3.117-.024.047-.047.071-.079.071s-.055-.024-.055-.079c.126-3.764,1.917-7.117,7-7.117h1.01c.181,0,.26-.079.26-.26V7.578a.112.112,0,0,1,.118-.118.2.2,0,0,1,.134.063l5.389,5.144a.232.232,0,0,1,.079.15.2.2,0,0,1-.079.15l-5.4,5.1A.193.193,0,0,1,14.622,18.127Z" transform="translate(-4.886 -5.472)" fill="#31AF9A"/>
</svg>
