<svg xmlns="http://www.w3.org/2000/svg" width="18.764" height="15.868" viewBox="0 0 18.764 15.868">
  <path id="slider.horizontal.3" d="M17.676,10.522a2.375,2.375,0,0,0,2.179-1.456h2.987a.868.868,0,0,0,0-1.734H19.854a2.353,2.353,0,0,0-4.357,0H5.775a.867.867,0,0,0,0,1.734H15.5A2.375,2.375,0,0,0,17.676,10.522Zm0-1.222a1.11,1.11,0,1,1,1.117-1.105A1.1,1.1,0,0,1,17.676,9.3ZM5.747,12.939a.863.863,0,0,0,0,1.725H8.834a2.36,2.36,0,0,0,4.366,0h9.614a.863.863,0,0,0,0-1.725H13.2a2.365,2.365,0,0,0-4.366,0Zm5.274,1.977A1.114,1.114,0,0,1,9.9,13.8a1.121,1.121,0,1,1,1.126,1.114Zm6.654,6.82a2.351,2.351,0,0,0,2.179-1.465h2.987a.863.863,0,0,0,0-1.725H19.854a2.353,2.353,0,0,0-4.357,0H5.775a.863.863,0,0,0,0,1.725H15.5A2.351,2.351,0,0,0,17.676,21.735Zm0-1.222a1.1,1.1,0,0,1-1.117-1.105,1.117,1.117,0,1,1,1.117,1.105Z" transform="translate(-4.912 -5.867)" fill="#1c1c1e"/>
</svg>
