<svg xmlns="http://www.w3.org/2000/svg" width="22.148" height="15.636" viewBox="0 0 22.148 15.636">
  <path id="ticket" d="M2.926,17.741a.938.938,0,0,0,.58.94A4.216,4.216,0,0,1,5.642,20.9a.981.981,0,0,0,.923.571H21.435a.981.981,0,0,0,.923-.571,4.217,4.217,0,0,1,2.136-2.215.95.95,0,0,0,.58-.94V9.559a.966.966,0,0,0-.58-.94A4.185,4.185,0,0,1,22.358,6.4a1,1,0,0,0-.923-.571H6.564a1,1,0,0,0-.923.571A4.185,4.185,0,0,1,3.506,8.618a.953.953,0,0,0-.58.94Zm1.749-.29V9.857A4.1,4.1,0,0,0,6.925,7.59H21.066a4.1,4.1,0,0,0,2.25,2.268v7.594a4.1,4.1,0,0,0-2.25,2.268H6.925A4.1,4.1,0,0,0,4.675,17.451Zm2.355.026a.752.752,0,0,0,.8.8H20.17a.752.752,0,0,0,.8-.8V9.831a.757.757,0,0,0-.8-.8H7.83a.757.757,0,0,0-.8.8Zm1.143-5.748V10.35a.149.149,0,0,1,.167-.167h.9v1.547Zm10.591,0V10.183h.888c.114,0,.176.053.176.167v1.38Zm-8.385,5.405V10.183h7.242v6.952Zm-2.206-2.7V12.872H9.236v1.564Zm10.591,0V12.872h1.063v1.564Zm0,2.7V15.579h1.063v1.389c0,.114-.062.167-.176.167ZM8.173,16.959V15.588H9.228v1.547H8.34A.155.155,0,0,1,8.173,16.959Z" transform="translate(-2.926 -5.832)" fill="#197572"/>
</svg>
